<svg height="512" viewBox="0 0 128 128" width="512" xmlns="http://www.w3.org/2000/svg"><g><path d="m98.142 78.567a295.292 295.292 0 0 1 -34.142 1.833 299.7 299.7 0 0 1 -33.757-1.78c-15.835-1.86-26.237-4.982-26.237-8.52a3.046 3.046 0 0 1 1.448-2.258h.013c8.994-6.822 46.213-8.033 58.533-8.033a298.179 298.179 0 0 1 34.341 1.846 132.148 132.148 0 0 1 16.7 3.042h.014c2.349.672 6.01 1.813 7.838 3.441h.013c6.431 5.825-16.139 9.402-24.764 10.429z" fill="#f5871e"/><g fill="#414247"><path d="m51.179 104.6a1.74 1.74 0 0 1 -.651-.126 36.64 36.64 0 0 1 -21.987-25.45 36.644 36.644 0 0 1 .183-17.882 1.75 1.75 0 1 1 3.384.89 33.169 33.169 0 0 0 19.723 39.194 1.75 1.75 0 0 1 -.652 3.374z"/><path d="m77.192 104.6a1.75 1.75 0 0 1 -.652-3.374 33.2 33.2 0 0 0 19.737-39.166 1.75 1.75 0 1 1 3.385-.889 36.687 36.687 0 0 1 -21.819 43.305 1.74 1.74 0 0 1 -.651.124z"/><path d="m56.083 121.766a1.75 1.75 0 0 1 -1.021-3.172l14.993-10.765a1.75 1.75 0 0 1 2.041 2.844l-14.996 10.765a1.749 1.749 0 0 1 -1.017.328z"/><path d="m72.162 121.766a1.746 1.746 0 0 1 -1.019-.328l-14.994-10.765a1.75 1.75 0 0 1 2.041-2.844l14.994 10.765a1.75 1.75 0 0 1 -1.022 3.172z"/></g><path d="m77.258 103.648v2.126a5.313 5.313 0 0 1 -5.314 5.314h-15.516a5.313 5.313 0 0 1 -5.314-5.314v-2.126a5.2 5.2 0 0 1 .066-.8 5.308 5.308 0 0 1 5.248-4.517h15.516a5.308 5.308 0 0 1 5.248 4.517 5.2 5.2 0 0 1 .066.8z" fill="#f5871e"/><path d="m122.905 68.138h-.013c-1.829-1.629-5.492-2.77-7.838-3.441h-.014a130.859 130.859 0 0 0 -16.7-3.042 298.572 298.572 0 0 0 -34.34-1.846c-11.8 0-49.587 1.247-58.533 8.037h-.013l15.012-15.646c13.018-2.385 30.234-3.219 43.534-3.219 13.652 0 30.227.816 43.6 3.229z" fill="#fabe19"/><path d="m53.465 23.86c1.129-.04 2.272-.067 3.414-.093l-21.362 26.45c-5.617.518-10.694 1.183-15.051 1.983l9.339-9.737 17.629-18.363c1.979-.107 3.985-.187 6.031-.24z" fill="#f04b37"/><path d="m107.6 52.21c-4.344-.784-9.379-1.462-14.972-1.98-.492-.053-.983-.093-1.488-.133l-6.257-7.758h-.013l-.013-.013-15-18.572c.743 0 1.487.026 2.218.039 1.236.027 2.471.067 3.68.107 1.634.053 3.255.119 4.836.2l17.629 18.36z" fill="#f04b37"/><path d="m80.593 24.1c-1.581-.08-3.2-.146-4.836-.2-1.209-.04-2.444-.08-3.68-.107-.731-.013-1.475-.039-2.218-.039-1.927-.04-3.88-.054-5.859-.054-.717 0-1.435 0-2.152.014s-1.422 0-2.126.013l-2.843.04c-1.142.026-2.285.053-3.414.093-2.046.053-4.052.133-6.031.239l14.693-15.317a2.6 2.6 0 0 1 3.746 0z" fill="#fabe19"/><path d="m91.141 50.1c-8.141-.72-17.377-1.119-27.141-1.119v-25.281c1.979 0 3.932.014 5.859.054l15 18.572.013.013h.014z" fill="#f5871e"/><path d="m64 23.7v25.281c-10.2 0-19.821.439-28.244 1.223a1.48 1.48 0 0 0 -.239.013l21.362-26.45 2.843-.04c.7-.013 1.422-.013 2.126-.013s1.435-.014 2.152-.014z" fill="#f5871e"/></g></svg>