<svg id="Capa_1" enable-background="new 0 0 512 512" height="512" viewBox="0 0 512 512" width="512" xmlns="http://www.w3.org/2000/svg"><g><path d="m361.001 437v60c0 8.28-6.72 15-15 15h-180c-8.28 0-15-6.72-15-15v-60c0-8.28 6.72-15 15-15h180c8.28 0 15 6.72 15 15z" fill="#fff2fb"/><path d="m361.001 437v60c0 8.28-6.72 15-15 15h-90v-90h90c8.28 0 15 6.72 15 15z" fill="#ffdfea"/><path d="m256.001 30c0-16.569-13.431-30-30-30h-15c-8.284 0-15 6.716-15 15v15c-62.366 0-105 50.243-105 112.082v76.705l-40.606 40.606c-5.858 5.858-5.858 15.355 0 21.213l45 45c6.117 6.117 16.073 5.782 21.787-.607l33.82-37.812v-167.187z" fill="#ffb64c"/><path d="m461.611 280.61-45 45c-6.11 6.11-16.07 5.79-21.79-.61l-3.82-4.27-19-53.4-11 19.86v149.81h-210v-317l105-90c0-16.57 13.43-30 30-30h15c8.28 0 15 6.72 15 15v15c62.41 0 105 50.26 105 112.08v76.71l40.61 40.6c5.85 5.86 5.85 15.36 0 21.22z" fill="#ffd396"/><path d="m461.611 280.61-45 45c-6.11 6.11-16.07 5.79-21.79-.61l-3.82-4.27-19-53.4-11 19.86v149.81h-105v-407c0-16.57 13.43-30 30-30h15c8.28 0 15 6.72 15 15v15c62.41 0 105 50.26 105 112.08v76.71l40.61 40.6c5.85 5.86 5.85 15.36 0 21.22z" fill="#ffb64c"/><g><g><g><path d="m391.001 135v185.73l-30-33.54v-152.19c0-8.28 6.72-15 15-15s15 6.72 15 15z" fill="#ff9100"/></g></g></g></g></svg>